<?xml version="1.0" encoding="UTF-8" standalone="no"?>
<svg
   xmlns:dc="http://purl.org/dc/elements/1.1/"
   xmlns:cc="http://creativecommons.org/ns#"
   xmlns:rdf="http://www.w3.org/1999/02/22-rdf-syntax-ns#"
   xmlns:svg="http://www.w3.org/2000/svg"
   xmlns="http://www.w3.org/2000/svg"
   xmlns:sodipodi="http://sodipodi.sourceforge.net/DTD/sodipodi-0.dtd"
   xmlns:inkscape="http://www.inkscape.org/namespaces/inkscape"
   version="1.0"
   width="161.000000pt"
   height="171.000000pt"
   viewBox="0 0 161.000000 171.000000"
   preserveAspectRatio="xMidYMid meet"
   id="svg8"
   sodipodi:docname="star.svg"
   inkscape:version="0.92.4 (5da689c313, 2019-01-14)">
  <defs
     id="defs12" />
  <sodipodi:namedview
     pagecolor="#ffffff"
     bordercolor="#666666"
     borderopacity="1"
     objecttolerance="10"
     gridtolerance="10"
     guidetolerance="10"
     inkscape:pageopacity="0"
     inkscape:pageshadow="2"
     inkscape:window-width="1680"
     inkscape:window-height="987"
     id="namedview10"
     showgrid="false"
     inkscape:zoom="2.9276701"
     inkscape:cx="115.44576"
     inkscape:cy="100.54054"
     inkscape:window-x="-8"
     inkscape:window-y="-8"
     inkscape:window-maximized="1"
     inkscape:current-layer="svg8" />
  <metadata
     id="metadata2">
Created by potrace 1.16, written by Peter Selinger 2001-2019
<rdf:RDF>
  <cc:Work
     rdf:about="">
    <dc:format>image/svg+xml</dc:format>
    <dc:type
       rdf:resource="http://purl.org/dc/dcmitype/StillImage" />
    <dc:title />
  </cc:Work>
</rdf:RDF>
</metadata>
  <g
     transform="matrix(0.1,0,0,-0.1,29.345335,172.81145)"
     id="g6"
     style="fill:#000000;stroke:none" />
  <path
     style="fill:#ffffff;fill-opacity:1;stroke:none;stroke-width:0.40000001;stroke-linejoin:round;stroke-miterlimit:4;stroke-dasharray:none;stroke-opacity:1;paint-order:stroke fill markers"
     d="m 109.01953,45.710938 c -2.6682,0.04757 -5.28773,0.970969 -7.55664,2.697265 -4.446871,2.898696 -6.224754,8.770144 -6.520665,15.424706 1.459026,18.36775 11.648815,28.165431 11.817125,37.629441 0.1341,2.39616 -0.46046,3.78249 -1.39411,4.50179 -1.36061,1.04824 -4.17092,0.61251 -6.751655,-1.48351 C 95.071632,101.19789 90.413707,96.744424 86.330078,91.027344 80.347445,82.778029 73.840871,71.353929 61.258739,71.90774 c -4.918367,0.312277 -9.115419,2.689059 -11.620141,6.501549 -1.773053,2.698801 -2.698079,6.117034 -2.43064,10.031654 0.678216,9.927328 9.069656,15.383087 30.72173,18.852027 16.666666,2.26667 22.417862,4.99278 22.406612,7.64103 -0.0634,2.02271 -2.414652,4.332 -6.772982,5.86123 -4.013479,1.40823 -9.683097,2.07237 -17.864927,3.0951 -11.205894,1.3281 -14.784223,2.39982 -19.438122,4.41196 -8.037532,4.0416 -12.078484,12.41841 -7.494618,21.15791 6.084762,8.43486 14.765953,10.23118 24.408524,3.90331 10.372484,-8.71064 17.477561,-20.3731 23.71831,-26.71327 2.636526,-2.65538 5.928805,-3.55443 7.522865,-2.93068 3.22513,1.80381 2.1604,9.30843 -3.57292,22.64177 -2.933339,6.93333 -5.732811,15.46497 -6.132811,18.93164 -1.333334,11.46667 5.465241,20 15.865231,20 11.20001,-0.13333 17.59987,-14.79883 12.5332,-28.79883 -0.93333,-2.93333 -3.80641,-8.7518 -5.80641,-13.1518 -4.60905,-12.74403 -5.56037,-18.41554 -3.0596,-19.80892 3.0236,-1.68468 12.44981,5.04244 20.13882,16.34353 3.18496,4.10461 6.18937,8.7014 10.03359,12.09417 8.70444,6.48573 19.39674,7.04233 25.41668,-2.09823 3.60048,-6.37267 2.82827,-14.52411 -2.15153,-18.86212 -4.8805,-4.13988 -13.83842,-6.5709 -27.82253,-8.34821 -16.61069,-1.76872 -20.57824,-5.3251 -20.65068,-7.53105 -0.11955,-1.46266 2.00618,-4.31192 5.58488,-5.3254 7.64032,-2.13521 13.50017,-2.61475 20.23027,-3.36331 6.71753,-0.74716 12.1134,-0.32418 18.37619,-4.10939 8.27467,-4.692794 12.25602,-15.400546 6.83133,-22.127741 -8.86292,-10.57122 -21.83986,-5.068326 -27.9538,0.920179 -3.84614,3.735703 -6.40108,5.722031 -11.60454,13.087638 -6.63125,9.420074 -11.93285,13.657584 -15.03684,12.557704 -3.50377,-1.08691 -2.33791,-8.233485 2.95987,-21.745799 2.70688,-7.024827 5.22829,-15.643277 5.51563,-19.121094 0.0479,-0.573867 0.0598,-1.134121 0.0683,-1.691406 0.43538,-5.72379 -0.96795,-9.79959 -4.56992,-13.809322 -3.03332,-3.304167 -6.95943,-4.757325 -10.58828,-4.692631 z"
     id="rect4528"
     inkscape:connector-curvature="0"
     sodipodi:nodetypes="ccccscccssccscccccccccccscccccccscccccccccsc"
     transform="scale(0.74999999)" />
</svg>
